<?xml version="1.0" encoding="UTF-8"?>
<svg version="1.1" xmlns="http://www.w3.org/2000/svg" width="1122" height="1039">
<path d="M0 0 C7.49871526 6.25175121 14.47293973 13.16714458 21.42333984 20.01831055 C22.55514755 21.12852135 23.69317571 22.232427 24.83740234 23.32983398 C39.07687308 36.99654616 47.87592664 51.9483962 48.4375 72.1875 C47.83716533 89.24862408 41.67694252 101.85597978 30 114 C28.70432802 115.46230138 27.41026587 116.92602965 26.1171875 118.390625 C19.82873811 125.40204145 13.11768834 131.9898161 6.4375 138.625 C5.1293222 139.92814946 3.82137783 141.2315333 2.51367188 142.53515625 C-0.65487214 145.69280792 -3.82654177 148.8472875 -7 152 C-6.01398804 151.69582153 -6.01398804 151.69582153 -5.00805664 151.38549805 C13.29793161 145.80315438 29.46758292 145.25827808 47 154 C55.43797036 158.54904184 62.16313309 165.39449347 69 172 C69.75764648 172.72509766 70.51529297 173.45019531 71.29589844 174.19726562 C87.20328223 189.47597437 102.76124439 205.03683709 103.29101562 228.48657227 C103.37560877 238.13692009 102.10383733 245.81319575 99 255 C99 255.66 99 256.32 99 257 C99.556875 256.43152344 100.11375 255.86304688 100.6875 255.27734375 C101.8321875 254.11912109 101.8321875 254.11912109 103 252.9375 C103.7425 252.18339844 104.485 251.42929687 105.25 250.65234375 C107.30856368 248.66688247 109.37156983 246.8196881 111.546875 244.97265625 C115.15196578 241.84776559 118.50542217 238.51317985 121.828125 235.09375 C122.3478186 234.56145279 122.86751221 234.02915558 123.4029541 233.48072815 C125.56060639 231.26925794 127.71696453 229.05706509 129.85302734 226.82470703 C142.9830678 213.13235221 157.09516115 204.82953328 176.52734375 203.96875 C194.11490479 204.12701827 208.79745644 210.63492967 221.125 223 C221.95386719 223.85722656 222.78273438 224.71445312 223.63671875 225.59765625 C225.66807053 227.6625841 227.73187037 229.56428705 229.9375 231.4375 C245.5110939 244.90315291 256.88927887 259.33028873 259 280.4375 C259.64026181 299.60533782 252.37500182 314.82411609 240.31933594 329.40429688 C239.02350569 330.97157047 237.74945156 332.55469805 236.4765625 334.140625 C225.66348274 347.4346545 213.51512362 359.59003659 199.70019531 369.74853516 C198.00363496 370.99732441 196.32604025 372.26887103 194.6484375 373.54296875 C185.61433001 380.30321188 176.00575992 385.80989121 166 391 C164.87682373 391.58612061 164.87682373 391.58612061 163.73095703 392.18408203 C109.42796099 420.16333383 45.70206098 422.74697785 -12.12524414 404.89672852 C-66.85290724 387.15101345 -114.33977832 346.88158869 -141 296 C-141.69585205 294.67210449 -141.69585205 294.67210449 -142.40576172 293.31738281 C-158.85481344 261.44979538 -167.40130317 227.41558702 -167.31567383 191.57495117 C-167.31252328 188.83276171 -167.33604553 186.09166597 -167.36132812 183.34960938 C-167.42260271 166.46284238 -165.37091952 149.96658059 -161.3125 133.5625 C-161.05903809 132.52738281 -160.80557617 131.49226562 -160.54443359 130.42578125 C-147.11322151 77.57110144 -112.93098693 28.70387179 -67 -1 C-46.43322869 -13.19151076 -19.97285418 -14.44170148 0 0 Z " fill="#329AD4" transform="translate(516,171)"/>
<path d="M0 0 C2.08131607 2.0556569 4.10918371 4.15761598 6.125 6.27734375 C8.31974151 8.55974969 10.51229927 10.64759161 12.92578125 12.6875 C28.47519965 26.07099109 39.76219375 40.55162502 41.86328125 61.5625 C42.50354306 80.73033782 35.23828307 95.94911609 23.18261719 110.52929688 C21.88678694 112.09657047 20.61273281 113.67969805 19.33984375 115.265625 C8.52676399 128.5596545 -3.62159513 140.71503659 -17.43652344 150.87353516 C-19.13308379 152.12232441 -20.8106785 153.39387103 -22.48828125 154.66796875 C-31.52238874 161.42821188 -41.13095883 166.93489121 -51.13671875 172.125 C-52.25989502 172.71112061 -52.25989502 172.71112061 -53.40576172 173.30908203 C-107.7180724 201.29313313 -171.82879828 204.05256212 -229.62182617 185.86694336 C-237.74981616 183.20434106 -245.47611002 179.94176972 -253.13671875 176.125 C-251.54653707 172.2525484 -249.06674031 169.81124402 -246.12190247 166.87640381 C-245.60652143 166.36001949 -245.09114039 165.84363516 -244.56014174 165.31160283 C-242.83232158 163.58283025 -241.0974559 161.86130667 -239.36254883 160.13964844 C-238.12195921 158.90126021 -236.88181714 157.66242348 -235.64208984 156.423172 C-232.97074135 153.75475781 -230.29626503 151.08953262 -227.61933327 148.42671967 C-223.38217565 144.21183576 -219.152124 139.98986859 -214.92301941 135.76690674 C-208.22742185 129.08269592 -201.52717191 122.40317103 -194.82488412 115.72566915 C-182.83823312 103.78328107 -170.85705205 91.83541192 -158.88118285 79.88221192 C-154.68089719 75.69030752 -150.47781911 71.50122941 -146.27243674 67.31443834 C-143.64836855 64.70106409 -141.02637186 62.08561863 -138.40486908 59.46967125 C-137.19445283 58.26270614 -135.98316675 57.05661258 -134.77091789 55.85148811 C-129.15528621 50.26811552 -123.57430496 44.69791045 -118.44147778 38.65860367 C-116.77891245 36.70443725 -115.01699582 34.87232181 -113.19921875 33.0625 C-112.61269531 32.47339844 -112.02617188 31.88429688 -111.421875 31.27734375 C-109.53786739 29.50283402 -107.619339 27.83468159 -105.6484375 26.16015625 C-102.02649554 23.01186252 -98.65100262 19.6582917 -95.30859375 16.21875 C-94.78897568 15.68653336 -94.2693576 15.15431671 -93.73399353 14.60597229 C-91.57626982 12.39441601 -89.41983129 10.18214564 -87.28369141 7.94970703 C-75.47829307 -4.36127581 -62.13254504 -13.55892038 -44.5625 -14.84375 C-28.23516719 -15.05408601 -12.17971847 -11.55734203 0 0 Z " fill="#235F77" transform="translate(733.13671875,389.875)"/>
<path d="M0 0 C4.48498977 3.84788152 8.75101538 7.89480152 13 12 C13.75764648 12.72509766 14.51529297 13.45019531 15.29589844 14.19726562 C31.20884682 29.48131904 46.7474738 45.03214738 47.29248047 68.48461914 C47.4300469 85.33986238 43.46759432 98.71360111 31.43255615 111.04846191 C29.17255048 113.33456471 26.8879876 115.59487392 24.60058594 117.85351562 C23.34101823 119.1119531 22.0823345 120.37127588 20.82446289 121.63140869 C17.42872847 125.02828454 14.02085695 128.4127372 10.61057568 131.79500008 C7.0382151 135.34224098 3.47728823 138.9009232 -0.0848999 142.45837402 C-6.82460062 149.18567194 -13.57442528 155.90271509 -20.32800269 162.61607885 C-28.01206534 170.25537858 -35.6847295 177.90608312 -43.35646486 185.55775928 C-58.48321665 200.64448536 -73.62282912 215.71824079 -88.77164078 230.78281403 C-90.1827662 232.18686391 -91.5924079 233.5924079 -93 235 C-137.3984607 212.75154741 -178.7748736 177.58545062 -199.1418457 131.22924805 C-199.49261673 130.43302536 -199.84338776 129.63680267 -200.20478821 128.81645203 C-200.4672081 128.21702286 -200.72962799 127.61759369 -201 127 C-184.62315573 110.5529748 -168.23765309 94.11462042 -151.84189034 77.68645382 C-144.22870714 70.05782291 -136.61834816 62.42641448 -129.01464844 54.78833008 C-122.38478095 48.12849608 -115.7495998 41.47400957 -109.10807025 34.82580477 C-105.59388231 31.30771686 -102.08235366 27.78706645 -98.57718277 24.2599926 C-95.27267506 20.93500516 -91.96106584 17.61725517 -88.64406013 14.30473709 C-87.43297482 13.0928317 -86.22442535 11.87838555 -85.01873207 10.66111565 C-76.49397778 2.05859682 -68.13428994 -6.23172786 -56.3125 -9.875 C-55.09175781 -10.26429688 -53.87101563 -10.65359375 -52.61328125 -11.0546875 C-34.19408636 -15.87354714 -14.94573661 -11.867949 0 0 Z " fill="#2F82AB" transform="translate(572,331)"/>
<path d="M0 0 C27.39 0 54.78 0 83 0 C83 7.26 83 14.52 83 22 C64.52 22 46.04 22 27 22 C27 33.55 27 45.1 27 57 C44.49 57 61.98 57 80 57 C80 64.26 80 71.52 80 79 C62.51 79 45.02 79 27 79 C27 92.2 27 105.4 27 119 C46.47 119 65.94 119 86 119 C86 126.26 86 133.52 86 141 C57.62 141 29.24 141 0 141 C0 94.47 0 47.94 0 0 Z " fill="#939598" transform="translate(347,626)"/>
<path d="M0 0 C7.9884819 6.75342056 11.9444344 17.1717693 13.15907288 27.37486267 C13.65171713 33.38201727 13.62110667 39.42098742 13.69140625 45.4453125 C13.71201094 46.93604055 13.73300825 48.42676321 13.75437927 49.91748047 C13.80923734 53.8168702 13.85880453 57.71630944 13.90722656 61.61578369 C13.9577086 65.60457702 14.01325444 69.59329958 14.06835938 73.58203125 C14.1754965 81.39056642 14.27656897 89.19916184 14.375 97.0078125 C6.455 97.0078125 -1.465 97.0078125 -9.625 97.0078125 C-10.615 92.0578125 -10.615 92.0578125 -11.625 87.0078125 C-12.615 87.9153125 -13.605 88.8228125 -14.625 89.7578125 C-24.30434142 98.01543979 -35.15593764 99.93923644 -47.625 99.0078125 C-56.05432376 97.68697829 -62.85697673 93.68567554 -68.2265625 87.01953125 C-73.87858131 78.50845029 -74.86635976 69.25777078 -73.16015625 59.29296875 C-70.68911981 49.80360394 -64.99772619 42.98619024 -56.625 38.0078125 C-42.74685614 30.9073668 -28.91406021 29.50804903 -13.625 30.0078125 C-14.90238917 22.75001063 -14.90238917 22.75001063 -17.625 16.0078125 C-19.84276622 14.70266514 -19.84276622 14.70266514 -22.625 14.0078125 C-23.6975 13.6365625 -24.77 13.2653125 -25.875 12.8828125 C-37.61416085 10.14367497 -49.23349271 13.32189342 -59.625 19.0078125 C-60.285 19.0078125 -60.945 19.0078125 -61.625 19.0078125 C-62.49000888 16.40679964 -63.34226928 13.80274839 -64.1875 11.1953125 C-64.43435547 10.45732422 -64.68121094 9.71933594 -64.93554688 8.95898438 C-66.73828125 3.34765625 -66.73828125 3.34765625 -65.625 0.0078125 C-47.22438154 -10.90611671 -17.69005778 -12.29047619 0 0 Z M-42.625 54.0078125 C-46.25927445 58.08529116 -47.5309144 61.55084752 -47.625 67.0078125 C-46.73237555 71.58251282 -45.38757349 74.33189509 -41.875 77.4453125 C-36.67185875 79.94682272 -32.66720055 80.52610994 -27.125 78.9453125 C-20.95557023 76.60808825 -16.97290347 73.35577339 -13.6875 67.6328125 C-11.59699427 61.13184957 -12.40420803 53.74605623 -12.625 47.0078125 C-23.51553332 46.59072825 -33.3482764 47.86855483 -42.625 54.0078125 Z " fill="#939598" transform="translate(679.625,669.9921875)"/>
<path d="M0 0 C0 9.24 0 18.48 0 28 C7.92 28 15.84 28 24 28 C24 34.93 24 41.86 24 49 C16.08 49 8.16 49 0 49 C0.07414652 55.97488668 0.15711481 62.948526 0.26245117 69.92285156 C0.29561573 72.29322758 0.32367378 74.66368095 0.34643555 77.03417969 C0.38013688 80.45020376 0.43246209 83.8655243 0.48828125 87.28125 C0.49467117 88.33364868 0.5010611 89.38604736 0.50764465 90.47033691 C0.62997335 96.65305506 1.34000886 101.38711166 4 107 C7.84856657 110.43068368 11.29364806 110.32821547 16.3125 110.1875 C18.519375 110.125625 20.72625 110.06375 23 110 C23 116.93 23 123.86 23 131 C10.41456511 133.36902304 -2.47620668 135.38133051 -13.8125 128.1875 C-21.143941 122.88336182 -23.86527848 116.94839825 -25.53123474 108.21517944 C-25.97889099 105.144783 -26.12053784 102.27772556 -26.11352539 99.17822266 C-26.11344986 98.05751373 -26.11337433 96.93680481 -26.11329651 95.78213501 C-26.10813522 94.58817108 -26.10297394 93.39420715 -26.09765625 92.1640625 C-26.0962413 90.92957367 -26.09482635 89.69508484 -26.09336853 88.42318726 C-26.08778272 84.49043325 -26.07523275 80.55773672 -26.0625 76.625 C-26.05691912 73.95442792 -26.05292058 71.28385637 -26.04882812 68.61328125 C-26.03781792 62.07549878 -26.02056297 55.53775912 -26 49 C-30.62 49 -35.24 49 -40 49 C-40 42.07 -40 35.14 -40 28 C-35.38 28 -30.76 28 -26 28 C-26 20.41 -26 12.82 -26 5 C-20.9571875 3.7625 -20.9571875 3.7625 -15.8125 2.5 C-14.76167236 2.23896484 -13.71084473 1.97792969 -12.62817383 1.70898438 C-11.78794678 1.50595703 -10.94771973 1.30292969 -10.08203125 1.09375 C-9.22843018 0.88427734 -8.3748291 0.67480469 -7.49536133 0.45898438 C-5 0 -5 0 0 0 Z " fill="#939598" transform="translate(749,636)"/>
<path d="M0 0 C-1.16204993 6.54849313 -2.73383385 12.74538144 -5 19 C-5.57105469 18.80664062 -6.14210938 18.61328125 -6.73046875 18.4140625 C-20.90689422 13.751116 -20.90689422 13.751116 -35.2421875 15.8203125 C-38.60092212 18.07439662 -39.19509317 20.04254143 -40 24 C-38.68718832 27.58374558 -37.66876412 29.53845856 -34.50390625 31.72265625 C-33.53324219 32.16480469 -32.56257813 32.60695313 -31.5625 33.0625 C-30.49644531 33.55878906 -29.43039062 34.05507813 -28.33203125 34.56640625 C-25.15731104 35.93231752 -21.9612455 37.22284645 -18.75 38.5 C-9.61063051 42.24642561 -1.34313031 48.36109016 2.875 57.5625 C5.24329908 64.85175584 5.30455356 73.74444006 2.4375 80.875 C-2.08053421 89.34434637 -7.95294012 94.73712595 -17 98 C-34.19869824 103.05364593 -52.92847588 102.32275356 -69 94 C-68.35587386 91.22875964 -67.70977252 88.45800555 -67.0625 85.6875 C-66.88009766 84.90181641 -66.69769531 84.11613281 -66.50976562 83.30664062 C-66.33251953 82.54931641 -66.15527344 81.79199219 -65.97265625 81.01171875 C-65.81031494 80.31522217 -65.64797363 79.61872559 -65.48071289 78.90112305 C-65.06234435 77.2465594 -64.53968631 75.61905892 -64 74 C-61.01598919 74.98432452 -58.04596132 75.9830506 -55.09765625 77.0703125 C-46.70973045 79.98503575 -38.87447234 81.16163494 -30 80 C-27.14847712 78.57819901 -25.24748297 77.24748297 -23 75 C-22.52977249 72.96983336 -22.52977249 72.96983336 -22.5 70.6875 C-22.4484375 69.92824219 -22.396875 69.16898438 -22.34375 68.38671875 C-23.36103014 64.68696776 -25.87803345 62.95778192 -29 61 C-31.99727835 59.54881482 -35.07628532 58.37021208 -38.1875 57.1875 C-49.49301668 52.63086688 -59.39643329 47.37823469 -65 36 C-67.53959212 28.27080658 -66.68477421 19.60224604 -63.30859375 12.3125 C-58.0551651 3.02882908 -50.63405538 -1.28102137 -40.71875 -4.8125 C-27.55831855 -8.3481383 -11.9122133 -6.40460866 0 0 Z " fill="#939598" transform="translate(516,668)"/>
<path d="M0 0 C0 9.24 0 18.48 0 28 C8.25 28 16.5 28 25 28 C25 34.93 25 41.86 25 49 C16.75 49 8.5 49 0 49 C0.09743457 55.20760771 0.20047372 61.41462391 0.31738281 67.62182617 C0.35543763 69.72919229 0.39032944 71.83661819 0.421875 73.9440918 C0.46804041 76.99028756 0.52594473 80.03608003 0.5859375 83.08203125 C0.59748871 84.00957718 0.60903992 84.93712311 0.62094116 85.89277649 C0.67951368 97.37358869 0.67951368 97.37358869 4.9375 107.625 C10.55492162 111.36994775 17.53471623 110.05931453 24 110 C24 116.6 24 123.2 24 130 C13.82241261 134.07103496 2.12175212 134.41499993 -8.390625 131.1640625 C-15.74156815 127.88474954 -20.46199402 122.49597836 -23.34375 115.078125 C-24.65179463 110.93598367 -25.12271246 107.41113302 -25.11352539 103.03808594 C-25.11344986 101.83714294 -25.11337433 100.63619995 -25.11329651 99.39886475 C-25.10813522 98.10708313 -25.10297394 96.81530151 -25.09765625 95.484375 C-25.09579017 94.14487765 -25.09436716 92.80537962 -25.09336853 91.46588135 C-25.08955835 87.94777528 -25.07974091 84.42971079 -25.06866455 80.91162109 C-25.05841817 77.31869061 -25.053864 73.72575339 -25.04882812 70.1328125 C-25.03811725 63.08852308 -25.02053262 56.04426863 -25 49 C-29.95 49 -34.9 49 -40 49 C-40 42.07 -40 35.14 -40 28 C-35.05 28 -30.1 28 -25 28 C-25 20.41 -25 12.82 -25 5 C-21.803125 4.175 -18.60625 3.35 -15.3125 2.5 C-14.31387939 2.23896484 -13.31525879 1.97792969 -12.28637695 1.70898438 C-11.48675537 1.50595703 -10.68713379 1.30292969 -9.86328125 1.09375 C-9.05157471 0.88427734 -8.23986816 0.67480469 -7.40356445 0.45898438 C-5 0 -5 0 0 0 Z " fill="#939598" transform="translate(570,636)"/>
<path d="M0 0 C4.92176622 2.89996184 7.91674914 6.83201624 9.5 12.3125 C10.99429887 20.41017676 10.68099614 27.32654153 6.6875 34.625 C2.43546295 39.84893123 -1.79407655 42.81391703 -8.6015625 43.53515625 C-15.51727732 43.80845769 -20.93266105 42.42342314 -26.3125 38 C-31.51059069 31.6137743 -33.03232692 25.43048548 -32.5 17.3125 C-31.36831062 10.28470894 -29.15510782 6.1919605 -23.6328125 1.6875 C-16.64066445 -2.82025845 -7.61451276 -3.52867664 0 0 Z M-20.5 8.3125 C-24.24925634 13.53467847 -24.93256473 17.93217028 -24.5 24.3125 C-22.93605312 28.9261433 -21.30624591 32.2199252 -17.5 35.3125 C-12.28797646 37.04984118 -8.15707115 37.03160635 -3.1875 34.875 C1.06405226 30.82119436 2.3834112 26.54298131 2.59375 20.71484375 C2.26517945 15.26878688 1.18324864 11.52192701 -2.5 7.3125 C-8.14936613 3.85879087 -15.39692669 3.95987865 -20.5 8.3125 Z " fill="#939598" transform="translate(690.5,816.6875)"/>
<path d="M0 0 C2.64 0 5.28 0 8 0 C8.01458252 0.8470752 8.02916504 1.69415039 8.04418945 2.56689453 C8.10551177 5.73181934 8.17971352 8.89611504 8.26245117 12.06054688 C8.29555386 13.4259925 8.32363086 14.79157013 8.34643555 16.15722656 C8.38024991 18.12853224 8.43408286 20.09946191 8.48828125 22.0703125 C8.51446533 23.25383301 8.54064941 24.43735352 8.56762695 25.65673828 C9.04571046 29.35344946 10.07549583 31.82346209 12 35 C15.10048928 36.55024464 17.57894218 36.28992015 21 36 C23.75329021 34.20437595 25.52627461 32.94745078 27 30 C27.15495763 27.75025839 27.25010928 25.49628464 27.31640625 23.2421875 C27.33718735 22.57913605 27.35796844 21.91608459 27.37937927 21.23294067 C27.44479231 19.11373306 27.50372105 16.994401 27.5625 14.875 C27.60569309 13.43878919 27.64930764 12.00259098 27.69335938 10.56640625 C27.80046499 7.04440406 27.90175575 3.52226175 28 0 C30.64 0 33.28 0 36 0 C36 14.19 36 28.38 36 43 C33.36 43 30.72 43 28 43 C27.67 42.01 27.34 41.02 27 40 C26.401875 40.474375 25.80375 40.94875 25.1875 41.4375 C21.0831938 44.36914729 16.88249887 44.50168796 12 44 C8.58937626 43.08149539 5.80272024 41.74736022 3.1875 39.3125 C-0.91121276 31.3307962 -0.23621856 22.73493476 -0.125 14 C-0.11494978 12.63932951 -0.10582754 11.27865183 -0.09765625 9.91796875 C-0.0742082 6.61179353 -0.04138856 3.3059912 0 0 Z " fill="#939598" transform="translate(425,816)"/>
<path d="M0 0 C3.35839709 2.42117 5.13046015 5.16452605 6.6875 8.9375 C7.01844454 11.79127394 7.16075065 14.22673061 7.078125 17.05859375 C7.07246521 17.80335464 7.06680542 18.54811554 7.06097412 19.31544495 C7.0387735 21.6693138 6.9886137 24.0215997 6.9375 26.375 C6.91741366 27.98109764 6.89916664 29.5872194 6.8828125 31.19335938 C6.83896309 35.1086729 6.77005471 39.0228191 6.6875 42.9375 C4.3775 42.9375 2.0675 42.9375 -0.3125 42.9375 C-0.33231934 42.15624756 -0.35213867 41.37499512 -0.37255859 40.57006836 C-0.46825472 37.00472682 -0.57775339 33.43993558 -0.6875 29.875 C-0.7184375 28.64587891 -0.749375 27.41675781 -0.78125 26.15039062 C-0.98028199 17.33900396 -0.98028199 17.33900396 -3.3125 8.9375 C-7.45908656 6.17310896 -10.78840295 6.73284348 -15.625 7.125 C-17.57164402 7.85028956 -17.57164402 7.85028956 -18.5 10.3125 C-18.768125 11.17875 -19.03625 12.045 -19.3125 12.9375 C-19.6425 13.9275 -19.9725 14.9175 -20.3125 15.9375 C-20.46279988 18.00112991 -20.56094448 20.06873915 -20.62890625 22.13671875 C-20.67080078 23.34521484 -20.71269531 24.55371094 -20.75585938 25.79882812 C-20.79517578 27.06146484 -20.83449219 28.32410156 -20.875 29.625 C-20.93977539 31.53635742 -20.93977539 31.53635742 -21.00585938 33.48632812 C-21.1120486 36.63660852 -21.21409533 39.78696839 -21.3125 42.9375 C-23.6225 42.9375 -25.9325 42.9375 -28.3125 42.9375 C-28.3125 28.7475 -28.3125 14.5575 -28.3125 -0.0625 C-26.0025 -0.0625 -23.6925 -0.0625 -21.3125 -0.0625 C-20.9825 1.2575 -20.6525 2.5775 -20.3125 3.9375 C-19.549375 3.298125 -18.78625 2.65875 -18 2 C-12.59529357 -2.14779796 -6.31012565 -2.02400257 0 0 Z " fill="#939598" transform="translate(542.3125,816.0625)"/>
<path d="M0 0 C2.64 0 5.28 0 8 0 C8.05093732 6.26217148 8.08583284 12.52428901 8.10986328 18.78662109 C8.11988705 20.91457109 8.13350961 23.04250744 8.15087891 25.17041016 C8.17528692 28.23864118 8.18651961 31.3066892 8.1953125 34.375 C8.20563507 35.31802979 8.21595764 36.26105957 8.22659302 37.23266602 C8.22798106 45.5054036 7.30067927 52.29619975 2 59 C-1.32098268 62.14267489 -3.67974451 62.35981134 -8.1875 62.25 C-9.25355469 62.23453125 -10.31960938 62.2190625 -11.41796875 62.203125 C-14 62 -14 62 -15 61 C-15.04092937 58.66702567 -15.04241723 56.33294775 -15 54 C-13.14375 54.2784375 -13.14375 54.2784375 -11.25 54.5625 C-8.23720423 54.94711223 -5.89989173 55.0874594 -3 54 C-0.91104462 47.96401839 -0.65996451 42.39208891 -0.5859375 36.03515625 C-0.56657135 35.00184677 -0.5472052 33.96853729 -0.5272522 32.90391541 C-0.46776701 29.62352595 -0.42119548 26.34310082 -0.375 23.0625 C-0.33679164 20.83006334 -0.29773826 18.59764098 -0.2578125 16.36523438 C-0.1620912 10.91028369 -0.0769539 5.45524599 0 0 Z " fill="#939598" transform="translate(366,816)"/>
<path d="M0 0 C1 1 1 1 1.09765625 2.84765625 C1.06510417 4.8984375 1.03255208 6.94921875 1 9 C0.113125 8.773125 -0.77375 8.54625 -1.6875 8.3125 C-4.96382659 7.75088248 -4.96382659 7.75088248 -7.6875 9.0625 C-11.31561513 12.10227214 -12.79382845 15.49335281 -13.43237305 20.15966797 C-13.45855713 21.25939941 -13.48474121 22.35913086 -13.51171875 23.4921875 C-13.54716797 24.69101562 -13.58261719 25.88984375 -13.61914062 27.125 C-13.64169922 28.3625 -13.66425781 29.6 -13.6875 30.875 C-13.72166016 32.13570312 -13.75582031 33.39640625 -13.79101562 34.6953125 C-13.87325167 37.79678616 -13.94248468 40.89798569 -14 44 C-16.64 44 -19.28 44 -22 44 C-22 29.81 -22 15.62 -22 1 C-19.36 1 -16.72 1 -14 1 C-13.67 2.32 -13.34 3.64 -13 5 C-12.401875 4.360625 -11.80375 3.72125 -11.1875 3.0625 C-7.67824513 -0.24622602 -4.64880362 -0.2021219 0 0 Z " fill="#939598" transform="translate(772,815)"/>
<path d="M0 0 C2.64 0 5.28 0 8 0 C8 14.19 8 28.38 8 43 C5.36 43 2.72 43 0 43 C0 28.81 0 14.62 0 0 Z " fill="#939598" transform="translate(601,816)"/>
<path d="M0 0 C1.38028635 0.14349512 2.75922399 0.31666032 4.125 0.5625 C3.22437895 1.94807084 2.31766158 3.32992968 1.38671875 4.6953125 C0.48726994 6.02638535 -0.38211731 7.37797971 -1.23046875 8.7421875 C-2.66469203 10.90313518 -3.9891395 12.77869783 -5.875 14.5625 C-9.75 15.0625 -9.75 15.0625 -12.875 14.5625 C-7.2962805 -0.04596082 -7.2962805 -0.04596082 0 0 Z " fill="#939598" transform="translate(450.875,794.4375)"/>
<path d="M0 0 C3 0.25 3 0.25 5 2.25 C5.25 4.75 5.25 4.75 5 7.25 C3 9.25 3 9.25 0 9.5 C-3 9.25 -3 9.25 -5 7.25 C-5.25 4.75 -5.25 4.75 -5 2.25 C-3 0.25 -3 0.25 0 0 Z " fill="#939598" transform="translate(605,796.75)"/>
<path d="M0 0 C3 0.25 3 0.25 5 2.25 C5.25 4.75 5.25 4.75 5 7.25 C3 9.25 3 9.25 0 9.5 C-3 9.25 -3 9.25 -5 7.25 C-5.25 4.75 -5.25 4.75 -5 2.25 C-3 0.25 -3 0.25 0 0 Z " fill="#939598" transform="translate(370,796.75)"/>
</svg>
