<?xml version="1.0" encoding="UTF-8"?>
<svg version="1.1" xmlns="http://www.w3.org/2000/svg" width="128" height="128">
<path d="M0 0 C42.24 0 84.48 0 128 0 C128 42.24 128 84.48 128 128 C85.76 128 43.52 128 0 128 C0 85.76 0 43.52 0 0 Z " fill="#FEFEFE" transform="translate(0,0)"/>
<path d="M0 0 C6.01177922 2.84193199 12.03367077 8.77154319 14.95703125 14.69921875 C16.00409171 18.17635535 16.44451109 21.57731244 15.6875 25.125 C13.02126699 29.75022581 9.74044521 33.32681408 5.9375 37 C5.43089844 37.49757812 4.92429688 37.99515625 4.40234375 38.5078125 C3.16864693 39.71823202 1.92872216 40.92229853 0.6875 42.125 C1.3475 41.795 2.0075 41.465 2.6875 41.125 C7.34374972 40.61415246 11.39186893 40.53116909 15.6875 42.5 C29.59203834 54.66647105 29.59203834 54.66647105 30.25 62.75 C30.37568359 64.25433594 30.37568359 64.25433594 30.50390625 65.7890625 C30.56449219 66.55992188 30.62507813 67.33078125 30.6875 68.125 C31.18378906 67.59390625 31.68007812 67.0628125 32.19140625 66.515625 C42.26302581 56.04266955 42.26302581 56.04266955 49.75 55.6875 C57.38950744 56.53633416 62.46465767 60.74658365 67.6875 66.125 C70.28300436 69.4020055 71.57859511 72.37627888 72.1875 76.5625 C70.79549086 86.48056515 63.81009727 94.16802367 56.078125 100.140625 C41.19807657 110.03198667 25.27975745 114.24007751 7.48046875 111.66015625 C-8.06385455 108.21718032 -21.95717902 99.01282807 -31.3125 86.125 C-40.38948202 71.3976878 -43.52081151 54.83321712 -40.3125 37.75 C-36.41368634 22.68308929 -27.42821107 9.44395239 -14.16015625 1.18359375 C-9.34795504 -1.5735025 -5.37574814 -1.42000894 0 0 Z " fill="#329BD5" transform="translate(51.3125,9.875)"/>
<path d="M0 0 C6.53483205 4.22041237 11.89602767 8.69489791 15 15.9375 C15.87230066 21.93456704 14.26398885 26.03269513 11 30.9375 C1.48323453 43.49489178 -12.61616181 52.04707998 -28.24609375 54.65625 C-40.31561539 55.888882 -52.54278374 55.67617546 -63 48.9375 C-59.08762185 44.25258826 -55.0191688 39.81787349 -50.68359375 35.5234375 C-50.10464859 34.94590729 -49.52570343 34.36837708 -48.92921448 33.77334595 C-47.10100741 31.95067166 -45.26934125 30.13152103 -43.4375 28.3125 C-42.20614634 27.08617228 -40.97502467 25.85961157 -39.74414062 24.6328125 C-37.48116683 22.37795082 -35.21685954 20.12444759 -32.95092773 17.87255859 C-28.03652122 13.01668657 -28.03652122 13.01668657 -23.2265625 8.05859375 C-16.47628009 0.96256516 -10.03056366 -3.5524913 0 0 Z " fill="#235F77" transform="translate(108,67.0625)"/>
<path d="M0 0 C6.13086379 2.80997924 13.94514442 9.89028885 17 16 C17.44921875 18.94140625 17.44921875 18.94140625 17.6875 22.5625 C17.84798828 24.32787109 17.84798828 24.32787109 18.01171875 26.12890625 C17.36800993 31.60113398 12.53321108 34.35117921 8.56130981 37.64883423 C5.67915091 40.14306979 3.01960153 42.86234321 0.3359375 45.56640625 C-0.51658852 46.42091118 -0.51658852 46.42091118 -1.38633728 47.29267883 C-3.13485829 49.04701343 -4.87998847 50.80467528 -6.625 52.5625 C-7.8317946 53.77432426 -9.03882439 54.98591434 -10.24609375 56.19726562 C-13.16677407 59.12882471 -16.08427747 62.06351021 -19 65 C-30.56875822 60.54639036 -40.03286818 51.48404353 -46.6875 41.125 C-48 38 -48 38 -47.26911926 36.00794983 C-45.99528293 33.99253685 -44.68796672 32.43421424 -43.0065918 30.74780273 C-42.40223801 30.13714462 -41.79788422 29.52648651 -41.17521667 28.89732361 C-40.52313736 28.24929276 -39.87105804 27.6012619 -39.19921875 26.93359375 C-38.52582962 26.25829117 -37.85244049 25.58298859 -37.15864563 24.88722229 C-35.7346062 23.46182338 -34.30804399 22.038941 -32.87915039 20.6184082 C-30.69901294 18.44895651 -28.52971615 16.26907876 -26.36132812 14.08789062 C-24.97459898 12.70248344 -23.58724937 11.31769699 -22.19921875 9.93359375 C-21.55321213 9.28353867 -20.90720551 8.63348358 -20.24162292 7.96372986 C-13.85262382 1.64035087 -9.17971377 -1.26462831 0 0 Z " fill="#2F83AC" transform="translate(64,51)"/>
</svg>
