<?xml version="1.0" standalone="no"?>
<!DOCTYPE svg PUBLIC "-//W3C//DTD SVG 20010904//EN"
 "http://www.w3.org/TR/2001/REC-SVG-20010904/DTD/svg10.dtd">
<svg version="1.0" xmlns="http://www.w3.org/2000/svg"
 width="1122.000000pt" height="1039.000000pt" viewBox="0 0 1122.000000 1039.000000"
 preserveAspectRatio="xMidYMid meet">

<g transform="translate(0.000000,1039.000000) scale(0.100000,-0.100000)"
fill="#000000" stroke="none">
<path d="M5225 7186 c-175 -41 -191 -55 -888 -753 l-619 -620 40 -79 c22 -43
71 -126 109 -184 367 -555 948 -918 1607 -1005 151 -19 430 -19 583 0 504 66
958 288 1314 644 132 132 272 309 314 398 56 117 69 256 35 387 -35 139 -66
184 -249 364 -183 180 -231 216 -341 257 -65 25 -90 29 -190 29 -88 1 -128 -3
-170 -18 -128 -44 -169 -73 -345 -245 -374 -365 -360 -352 -326 -296 52 84 74
160 79 269 5 119 -7 184 -55 286 -32 68 -54 94 -237 276 -208 209 -237 231
-366 276 -73 25 -216 32 -295 14z"/>
</g>
</svg>
