<svg version="1.1" id="Layer_1" xmlns="http://www.w3.org/2000/svg" xmlns:xlink="http://www.w3.org/1999/xlink" x="0px" y="0px"
	 width="100%" viewBox="0 0 1024 944" enable-background="new 0 0 1024 944" xml:space="preserve">
<path fill="#000000" opacity="1.000000" stroke="none" 
	d="
M527.531372,1.000000 
	C527.363464,1.881149 525.565491,1.897501 526.904663,4.002249 
	C533.498596,14.365495 541.837830,23.074108 551.355530,30.719128 
	C552.637268,31.748627 554.104065,32.816463 555.651123,33.204216 
	C567.899048,36.273941 575.658691,45.023994 582.028687,54.899033 
	C597.193481,78.408234 615.019897,99.639992 635.383972,118.724167 
	C648.405334,130.927155 657.981995,145.500809 667.532288,160.427933 
	C677.043457,175.293823 683.968323,191.172363 691.144348,207.101791 
	C698.199524,222.762894 707.396118,236.772247 723.462341,245.179382 
	C732.510864,249.914291 739.237549,257.893799 746.530701,264.937012 
	C759.796265,277.748077 774.866150,288.144409 790.510803,297.676422 
	C810.284485,309.724152 825.805481,325.669922 834.720459,347.012451 
	C841.363525,362.916016 843.619141,379.743958 838.824890,396.911255 
	C835.229553,409.785370 833.228516,422.954742 832.236877,436.273560 
	C831.497131,446.209198 834.908203,455.738037 835.299133,465.529938 
	C835.667480,474.754730 839.937927,482.826904 841.856079,491.539398 
	C845.354065,507.427856 843.527771,523.331726 840.632629,539.125122 
	C839.934631,542.933228 839.852173,546.744629 839.911255,550.575012 
	C840.039978,558.911743 839.608276,567.160767 838.379456,575.460571 
	C836.947571,585.132812 839.010254,594.861816 841.375000,604.134155 
	C844.711548,617.216675 844.334900,630.154907 843.038879,643.298279 
	C841.634827,657.536682 841.641052,672.037842 837.368408,685.789062 
	C833.743835,697.454529 833.254150,709.179871 832.850037,721.230591 
	C832.363281,735.749207 831.809204,750.376892 825.411499,764.208130 
	C820.958191,773.835693 820.573181,784.888306 817.663208,795.168457 
	C814.782410,805.345703 808.675781,813.205200 802.415955,821.207092 
	C795.305908,830.295898 785.410095,836.709351 778.609985,846.024719 
	C774.983459,850.992554 770.057800,854.264282 765.384460,857.955322 
	C759.044861,862.962402 753.741943,868.871033 750.630249,876.460938 
	C749.675293,878.790283 747.566223,879.923706 745.907532,881.514221 
	C738.119141,888.983032 729.722290,895.714172 720.622681,901.508240 
	C716.133240,904.366882 710.708374,904.276978 705.678650,905.198303 
	C698.181091,906.571716 692.750000,911.626770 686.517090,915.190430 
	C684.085876,916.580444 681.924683,918.501343 679.117432,919.074646 
	C660.333557,922.910583 641.515564,926.440369 622.174988,924.429993 
	C620.868042,924.294250 619.455200,924.228455 618.212341,924.569702 
	C604.481812,928.339355 590.449951,929.340149 576.309448,930.598633 
	C564.165649,931.679443 552.456604,931.427002 540.602356,929.329041 
	C533.342773,928.044250 526.082031,928.303345 518.725586,928.921326 
	C497.677399,930.689514 476.850403,928.213928 456.135742,924.676270 
	C451.649475,923.910156 447.173920,924.082886 442.681976,924.022339 
	C436.024170,923.932617 429.294769,924.492188 422.749207,923.043762 
	C412.171844,920.703247 401.871918,923.078003 391.518768,924.461548 
	C384.742493,925.367004 378.142487,926.416382 371.269257,924.370972 
	C365.722351,922.720154 359.870636,921.758911 354.090546,921.308472 
	C346.375092,920.707397 342.243927,915.332336 338.774597,909.882202 
	C336.443207,906.219666 333.553467,904.251831 329.967224,903.224670 
	C320.445282,900.497375 311.868652,895.619385 302.779999,891.933105 
	C294.470093,888.562683 289.431976,881.641357 285.492432,874.564636 
	C281.677704,867.712219 276.814514,861.625244 273.041779,854.784912 
	C267.591888,844.903809 264.418030,834.239258 261.100952,823.600342 
	C259.714355,819.153076 260.336761,814.683167 262.052032,810.388733 
	C264.167938,805.091553 262.435211,800.299744 261.287872,794.976868 
	C258.232422,780.801392 248.917923,772.844971 237.189865,766.188660 
	C232.842880,763.721619 228.828125,760.918823 223.882629,759.609558 
	C217.837173,758.009094 213.841705,753.873840 211.609314,748.082703 
	C207.755783,738.086426 205.088074,727.893799 204.785202,717.035339 
	C204.162445,694.709106 202.696472,672.493591 196.029068,650.895020 
	C191.724060,636.949341 191.882965,622.637512 194.812241,608.360596 
	C198.403046,590.859497 200.300705,573.157532 200.719009,555.313416 
	C201.071869,540.260315 197.707443,525.776550 192.237015,511.920807 
	C187.686920,500.396088 186.298355,488.439148 184.955948,476.348511 
	C183.359650,461.971497 183.063965,447.501404 180.499649,433.166077 
	C178.510483,422.046173 170.522415,416.718170 162.766953,410.890900 
	C159.522888,408.453461 156.425156,410.659241 154.079575,413.372375 
	C149.176437,419.043854 143.988724,424.335663 137.465897,428.252441 
	C134.975418,429.747894 132.956360,429.870758 130.521210,428.512878 
	C126.921204,426.505463 123.456406,423.755402 122.421600,420.053467 
	C117.564590,402.678040 113.453400,385.149963 118.959221,367.027496 
	C121.092300,360.006439 125.787758,354.460205 129.467560,348.359436 
	C135.656067,338.099457 136.865662,327.144196 135.411057,315.614929 
	C133.990433,304.354889 132.842453,293.099701 134.911835,281.786407 
	C135.666473,277.660919 137.606415,274.275208 140.991562,271.795746 
	C144.708847,269.073059 149.518311,269.342957 152.882004,272.445099 
	C154.718292,274.138580 156.356766,276.056305 158.258606,277.667297 
	C164.728836,283.147827 173.484970,281.062408 176.707886,273.131927 
	C179.854782,265.388519 182.472000,257.370270 182.651566,248.974854 
	C182.948288,235.099640 188.148193,222.575500 193.156815,210.122589 
	C196.550293,201.685425 198.985870,193.171753 200.631439,184.303925 
	C202.828033,172.466537 206.543930,161.149200 212.387344,150.532913 
	C215.267059,145.301041 215.982574,139.162476 219.250168,133.965012 
	C229.088867,118.315529 242.705704,106.981491 258.681305,98.103539 
	C265.775635,94.161072 273.224518,90.996010 279.827911,85.966766 
	C292.291534,76.474327 298.707275,62.889542 305.911499,49.823925 
	C310.083588,42.257397 316.154755,37.732395 324.299652,35.675884 
	C338.259430,32.151169 350.734802,24.714890 364.489563,20.567280 
	C370.482117,18.760290 373.047974,12.410167 377.088379,8.064685 
	C378.773041,6.252798 380.357788,4.385650 382.414154,2.987119 
	C381.856812,1.495301 380.303558,2.086036 379.248169,1.159944 
	C428.354218,1.000000 477.708466,1.000000 527.531372,1.000000 
M448.806976,521.658203 
	C475.999634,532.497375 504.301880,537.107239 533.487610,536.629700 
	C536.956299,536.572876 540.410461,535.818542 543.881836,535.704651 
	C553.538147,535.387756 562.961304,533.376160 572.425476,531.786316 
	C582.283508,530.130188 591.588196,526.447937 600.981079,523.083374 
	C629.016052,513.041382 653.106628,496.792297 674.391785,476.304352 
	C683.606262,467.434998 691.329102,457.135010 698.706055,446.689056 
	C704.983521,437.799957 708.675598,427.506836 708.284607,416.773621 
	C707.746338,401.994751 702.768433,388.610352 691.330444,378.194885 
	C684.560425,372.030090 678.362854,365.240234 671.830078,358.810486 
	C657.565613,344.770874 640.231689,341.586456 621.246338,344.975403 
	C611.264465,346.757141 603.122437,352.308655 595.927429,359.129120 
	C588.068054,366.579315 580.598083,374.438629 572.842224,382.000427 
	C569.671326,385.091949 566.195557,387.870728 562.858459,390.791748 
	C562.290100,389.284912 562.503540,388.529266 562.724365,387.775818 
	C568.019165,369.703949 567.841370,352.435120 555.571594,336.789856 
	C547.513672,326.515228 537.389221,318.265747 528.527161,308.785248 
	C524.170776,304.124908 519.239807,300.196014 513.551758,297.340576 
	C499.460724,290.266846 484.957275,289.911102 470.155945,294.940033 
	C468.772797,295.409973 467.290253,296.641968 465.417847,295.262085 
	C467.955109,292.443146 470.251343,289.698761 472.748688,287.151520 
	C482.364227,277.343903 491.955597,267.509827 501.719971,257.851410 
	C517.876953,241.869843 519.704468,212.311401 508.022034,195.158340 
	C502.946167,187.705505 496.512909,181.566208 490.201813,175.185318 
	C482.721375,167.622086 475.611969,159.756912 466.254028,154.509613 
	C451.632904,146.311096 436.577881,144.879074 420.844147,151.666428 
	C407.607910,157.376358 396.880310,166.537582 386.520905,176.072678 
	C363.598022,197.171616 346.241272,222.082779 334.288635,251.089508 
	C325.951447,271.322266 321.343445,292.224335 319.580811,313.702728 
	C317.797760,335.429749 319.829865,357.138000 324.888245,378.410736 
	C329.720215,398.731262 337.812164,417.853210 348.459778,435.739807 
	C362.814362,459.853668 381.637024,480.048248 404.244385,496.750885 
	C417.858551,506.809204 432.992218,514.077271 448.806976,521.658203 
M345.500092,572.371216 
	C338.338348,572.370789 331.176300,572.329712 324.014954,572.382385 
	C317.919891,572.427185 317.357025,572.982056 317.354675,578.869629 
	C317.339172,617.509583 317.419189,656.149963 317.244781,694.789124 
	C317.223389,699.532288 318.886292,700.770325 323.330078,700.732971 
	C343.481415,700.563293 363.634949,700.645325 383.787689,700.654602 
	C396.698059,700.660583 396.698059,700.674438 396.654846,687.920288 
	C396.630829,680.833069 396.213562,680.400879 388.905762,680.388428 
	C375.914764,680.366150 362.923737,680.384460 349.932709,680.375305 
	C342.689789,680.370239 342.680664,680.360718 342.667938,673.369995 
	C342.654602,666.041748 342.652374,658.713440 342.661621,651.385193 
	C342.670074,644.700806 342.679688,644.680298 349.146942,644.667236 
	C358.640350,644.648071 368.133911,644.639709 377.627289,644.666748 
	C391.538483,644.706360 390.702637,645.551514 390.649719,631.707092 
	C390.624481,625.101440 389.885925,624.381348 383.052094,624.365723 
	C371.227020,624.338623 359.400696,624.277344 347.577301,624.424255 
	C343.972931,624.468933 342.491882,623.286133 342.602356,619.543274 
	C342.808685,612.554260 342.990356,605.533630 342.547760,598.566406 
	C342.209625,593.244019 344.563629,591.929138 349.239777,592.061768 
	C359.057190,592.340271 368.883331,592.596069 378.701813,592.488464 
	C397.157013,592.286133 393.100525,592.709717 393.698273,578.358093 
	C393.892059,573.705017 391.905518,572.248291 387.471039,572.303833 
	C373.815918,572.474792 360.157349,572.369690 345.500092,572.371216 
M570.601746,699.864319 
	C585.637207,705.863647 598.702271,701.533875 610.893555,691.606934 
	C611.759216,695.060730 611.069824,699.444763 614.638428,700.163635 
	C620.299194,701.303955 626.228455,701.138977 631.990723,700.118896 
	C633.835449,699.792358 634.594727,698.039673 634.395081,696.221252 
	C632.737122,681.120361 634.061646,665.974854 633.678711,650.855591 
	C633.552734,645.881104 633.627686,640.935852 632.690613,635.985718 
	C629.993896,621.739563 623.494812,610.207214 608.543030,606.763184 
	C595.495178,603.757690 582.162842,603.970764 569.424194,609.370178 
	C560.508240,613.149414 560.502686,613.136353 563.307068,621.964050 
	C565.203979,627.935303 565.755554,628.279358 571.839172,626.335449 
	C578.508057,624.204407 585.252441,622.451965 592.302856,622.701599 
	C600.732178,622.999939 607.207031,627.580688 608.180786,633.715576 
	C608.718689,637.104614 608.252258,639.715820 603.755981,639.393005 
	C596.360596,638.861938 589.186768,640.452515 582.172424,642.460815 
	C574.514709,644.653259 567.225708,647.788452 561.599304,653.775146 
	C555.521179,660.242554 553.711121,667.923035 554.229736,676.698242 
	C554.803589,686.407715 560.806213,695.893799 570.601746,699.864319 
M699.113464,625.669067 
	C705.714905,625.334167 706.527405,624.519287 706.627136,617.975220 
	C706.662659,615.645264 706.497559,613.308777 706.610352,610.984314 
	C706.767456,607.746338 705.098877,606.432251 702.112488,606.394165 
	C698.117249,606.343262 694.108521,606.140015 690.129272,606.385925 
	C686.106995,606.634460 684.339294,605.310120 684.596741,601.058350 
	C684.877930,596.414062 684.595093,591.738098 684.654541,587.077148 
	C684.705261,583.105469 682.796631,581.600769 678.997253,582.345276 
	C674.620056,583.203003 670.261597,584.157410 665.878784,584.984192 
	C661.705444,585.771484 660.038452,588.220337 660.304932,592.415771 
	C660.515564,595.731506 660.256409,599.074341 660.339111,602.401794 
	C660.405701,605.079346 659.363708,606.195374 656.567139,606.372437 
	C648.343140,606.892822 648.349854,607.001648 648.349243,615.420044 
	C648.349121,616.918457 648.368286,618.417114 648.348633,619.915222 
	C648.297424,623.819092 650.138672,626.081543 654.108276,625.603882 
	C659.344788,624.973816 660.403931,627.248596 660.464783,632.109497 
	C660.655945,647.383972 659.102112,662.712646 661.334412,677.931458 
	C664.181030,697.338867 674.503418,703.241577 692.007996,702.264771 
	C705.572998,701.507812 706.010498,703.247192 705.670044,688.513733 
	C705.530212,682.462341 705.390076,682.022095 698.969971,682.403503 
	C688.362488,683.033691 685.179565,678.115601 684.801147,668.780762 
	C684.275574,655.815735 684.716553,642.813049 684.636353,629.827209 
	C684.618164,626.883545 685.674988,625.533447 688.709595,625.656860 
	C691.867493,625.785400 695.035034,625.676392 699.113464,625.669067 
M543.652527,693.401489 
	C543.562866,689.486938 543.804138,685.542847 542.902832,681.491638 
	C540.466431,681.800781 538.354675,682.203735 536.227600,682.315491 
	C526.529968,682.824707 524.047607,680.495605 522.550476,670.888367 
	C520.742126,659.284302 521.858765,647.647705 521.721069,636.032837 
	C521.581543,624.261169 520.042908,625.768433 531.983948,625.689697 
	C545.183411,625.602722 545.105896,625.674988 544.690186,612.453796 
	C544.559692,608.304993 542.824890,606.285706 538.649353,606.333496 
	C534.654907,606.379272 530.644043,606.109131 526.668640,606.385315 
	C522.605042,606.667603 521.389893,604.911987 521.600464,601.128662 
	C521.822205,597.145874 521.685974,593.140930 521.644287,589.146301 
	C521.571777,582.197388 520.325012,581.237732 513.576172,582.835754 
	C512.930115,582.988770 512.295227,583.191345 511.646637,583.331238 
	C496.246704,586.651733 498.552795,584.003418 498.369690,599.615112 
	C498.291473,606.285645 498.330292,606.286072 491.886536,606.331360 
	C484.825165,606.380981 484.363983,606.856628 484.345947,614.115479 
	C484.343445,615.114258 484.346497,616.112976 484.347290,617.111755 
	C484.353912,625.145874 484.749512,625.779419 492.766052,625.574280 
	C497.137146,625.462341 498.526123,626.832031 498.453156,631.245850 
	C498.205444,646.223267 498.149811,661.210754 498.415710,676.187378 
	C498.589233,685.963379 503.877686,697.887207 516.199524,700.931213 
	C523.730774,702.791748 530.875305,702.471375 538.294861,701.335510 
	C542.646545,700.669189 544.356812,698.541931 543.652527,693.401489 
M412.489197,641.821777 
	C416.261383,649.288513 421.601746,655.161011 429.399902,658.576172 
	C435.022461,661.038513 440.602997,663.597168 446.232513,666.043274 
	C451.420715,668.297729 451.682892,672.754456 451.250549,677.380737 
	C450.806274,682.134338 447.041290,683.784058 443.184113,684.154480 
	C436.912628,684.756653 430.626801,684.601990 424.479462,682.431091 
	C413.598846,678.588440 413.769958,678.787354 410.194031,689.961121 
	C408.642914,694.807922 410.081970,697.158447 414.600739,698.519775 
	C428.016541,702.561401 441.407013,704.058411 455.159027,699.761841 
	C467.280853,695.974670 473.616882,688.631470 475.516663,676.595276 
	C477.342560,665.027283 471.570648,654.826721 460.972839,648.986389 
	C454.259338,645.286560 446.692871,643.634827 440.065216,639.712341 
	C436.094208,637.362183 435.274475,634.125732 435.697418,630.022156 
	C436.094696,626.167236 439.011810,624.888184 442.012085,623.779114 
	C447.120087,621.890991 452.214020,623.202087 457.085144,624.584045 
	C467.544464,627.551514 467.494263,627.728088 470.744171,617.136719 
	C470.841766,616.818665 470.932709,616.497437 471.051636,616.187256 
	C472.369019,612.751404 471.266449,610.515198 467.881470,609.050659 
	C455.358185,603.632263 442.472412,603.297791 430.033203,608.221069 
	C415.663147,613.908752 408.577667,628.110046 412.489197,641.821777 
M605.871338,751.405396 
	C603.373108,754.854675 602.091919,758.809509 601.764343,762.958374 
	C600.734253,776.004089 609.038513,787.474548 623.867920,785.276794 
	C634.564819,783.691528 640.816528,776.118347 640.347229,765.084045 
	C640.111389,759.540344 639.580444,753.572632 634.652771,749.238831 
	C625.766113,741.423401 613.598450,743.867981 605.871338,751.405396 
M410.636139,777.300537 
	C402.827271,781.641968 397.027679,778.597412 396.728760,769.792969 
	C396.503052,763.144592 396.633331,756.482422 396.684418,749.827026 
	C396.704285,747.244446 396.494934,745.208130 393.036835,745.321533 
	C389.948364,745.422729 388.380157,746.658142 388.388000,749.802551 
	C388.403351,755.958801 388.038757,762.138489 388.453125,768.266418 
	C389.210449,779.465454 392.037170,783.114990 400.417328,785.258789 
	C405.185669,786.478577 409.172363,784.391663 413.390106,782.384277 
	C414.923370,784.860168 417.369629,785.180481 419.793121,784.378479 
	C422.605438,783.447876 421.602509,780.756836 421.622345,778.757568 
	C421.716339,769.273865 421.643311,759.788696 421.681122,750.304199 
	C421.691925,747.599792 421.587433,745.271790 417.848480,745.375183 
	C414.429474,745.469788 414.305115,747.629822 414.318695,750.132141 
	C414.350281,755.955872 414.324646,761.779846 414.332672,767.603760 
	C414.337372,771.008362 413.744019,774.203674 410.636139,777.300537 
M489.862366,751.563354 
	C493.006073,751.703430 493.297485,754.358826 493.998932,756.471985 
	C496.476227,763.934631 494.993408,771.666931 495.356445,779.275513 
	C495.466125,781.574158 495.529877,783.754578 498.564850,783.913086 
	C501.669250,784.075256 502.626251,782.171814 502.633636,779.479980 
	C502.653290,772.317078 502.954834,765.138306 502.584412,757.994873 
	C501.990387,746.538452 491.335052,741.104370 481.456207,746.937195 
	C480.207642,747.674377 478.842224,748.213501 477.083771,749.059570 
	C476.836426,745.907104 475.134888,745.123657 472.569122,745.562500 
	C470.589722,745.901062 470.343201,747.254333 470.344452,748.865723 
	C470.353058,759.693481 470.348877,770.521240 470.363556,781.348999 
	C470.365448,782.738159 470.551483,784.123657 472.289581,784.359375 
	C474.162109,784.613342 475.637543,783.868164 476.175049,782.015259 
	C476.538818,780.761230 476.619934,779.394653 476.636200,778.076050 
	C476.693726,773.412354 476.502747,768.740295 476.709900,764.084900 
	C477.139648,754.426331 481.090332,750.544678 489.862366,751.563354 
M335.348206,780.400146 
	C335.304840,782.560852 335.497284,784.758057 335.169342,786.874634 
	C334.474518,791.359375 332.700836,795.103638 327.668945,796.254150 
	C325.703278,796.703552 323.886688,794.738159 321.954865,795.979309 
	C321.011078,801.345398 321.805542,802.425964 326.782104,802.649231 
	C334.175354,802.980957 340.075897,798.124939 341.531250,789.880371 
	C343.888062,776.529297 342.347382,763.031494 342.537018,749.599060 
	C342.571533,747.155945 341.141693,745.515625 338.489929,745.465149 
	C335.248779,745.403442 335.358978,747.771729 335.356659,749.986816 
	C335.346405,759.799561 335.350220,769.612366 335.348206,780.400146 
M704.432556,745.009827 
	C700.086304,743.343628 697.429504,747.149963 693.564209,748.385376 
	C692.420471,745.580444 690.051270,744.658081 687.282654,745.662231 
	C684.272461,746.753967 685.412903,749.620544 685.385315,751.768555 
	C685.267639,760.931519 685.294678,770.097046 685.349060,779.261169 
	C685.363098,781.625977 684.615479,784.650635 688.673523,784.564941 
	C692.522522,784.483704 692.655334,781.758057 692.661926,778.956116 
	C692.673340,774.123962 692.631897,769.291443 692.681335,764.459717 
	C692.766724,756.104675 694.886780,753.574158 702.922485,751.479309 
	C706.389709,750.575439 707.581482,748.492371 704.432556,745.009827 
M555.050720,745.555725 
	C550.608887,744.615356 549.162964,746.521545 549.262817,750.891602 
	C549.482300,760.498535 549.339539,770.114075 549.322205,779.726074 
	C549.317566,782.306213 549.099731,784.790100 552.992859,784.667297 
	C556.776184,784.547913 556.635498,782.018860 556.642761,779.492188 
	C556.671509,769.548828 556.668579,759.605286 556.656067,749.661865 
	C556.654419,748.359802 556.856445,746.976929 555.050720,745.555725 
M410.642059,726.466858 
	C406.523010,728.251343 404.887024,732.120789 402.910492,735.697266 
	C402.245178,736.901184 402.496643,737.965942 403.661896,738.696350 
	C404.791229,739.404297 405.832092,739.280396 406.723938,738.181885 
	C409.011658,735.364258 411.495422,732.687988 413.582458,729.730530 
	C415.393341,727.164368 413.274811,726.729492 410.642059,726.466858 
M549.513855,735.026367 
	C551.661438,736.722961 553.895630,737.532227 555.990051,735.083801 
	C557.051941,733.842468 558.005310,732.287048 556.740723,730.630920 
	C555.318481,728.768311 553.281921,727.784607 551.124939,728.883301 
	C548.952393,729.989929 547.562012,731.859558 549.513855,735.026367 
M337.721619,735.752563 
	C340.248322,735.627808 342.284393,734.756897 342.432709,731.894531 
	C342.506317,730.473938 341.522797,729.467224 340.046906,729.220337 
	C338.213623,728.913574 336.291656,728.843933 335.284637,730.740662 
	C334.169495,732.840942 335.028015,734.491882 337.721619,735.752563 
z"/>
<path fill="#000000" opacity="1.000000" stroke="none" 
	d="
M582.369019,662.387573 
	C589.598145,655.563843 598.576111,656.728821 607.006897,655.838684 
	C608.041321,655.729370 608.732971,656.447266 609.153687,657.534973 
	C612.832947,667.046326 606.448853,680.502930 596.535217,684.026245 
	C589.460938,686.540466 583.605408,684.724426 579.756165,678.522705 
	C577.502014,674.890930 576.823059,667.192078 582.369019,662.387573 
z"/>
<path fill="#000000" opacity="1.000000" stroke="none" 
	d="
M620.287598,751.086731 
	C626.169800,751.016602 630.220215,753.229858 632.066101,758.671387 
	C634.246643,765.099670 633.359497,771.168945 629.223206,776.469727 
	C626.844055,779.518616 619.842102,780.274170 616.210266,778.455566 
	C611.678406,776.186401 608.068604,769.059570 608.750732,763.728333 
	C609.685669,756.420410 613.333740,752.329102 620.287598,751.086731 
z"/>
</svg>